<?xml version="1.0"?>
<svg width="80" height="80" xmlns="http://www.w3.org/2000/svg" xmlns:svg="http://www.w3.org/2000/svg">
 <g class="layer">
  <title>Layer 1</title>
  <g id="🦆 icon &quot;notifications none&quot;">
   <path d="m31.5,52c2.96,0 5.37,-1.99 5.37,-4.41l-10.75,0c0,2.42 2.42,4.41 5.37,4.41zm16.12,-13.22l0,-11.04c0,-6.77 -4.39,-12.43 -12.09,-13.94l0,-1.49c0,-1.85 -1.79,-3.31 -4.03,-3.31c-2.24,0 -4.03,1.47 -4.03,3.31l0,1.49c-7.69,1.5 -12.09,7.15 -12.09,13.94l0,11.04l-5.37,4.41l0,2.2l43,0l0,-2.2l-5.37,-4.41zm-5.37,2.2l-21.5,0l0,-13.24c0,-5.46 4.07,-9.93 10.75,-9.93c6.68,0 10.75,4.46 10.75,9.93l0,13.24z" fill="#9DB2CE" id="Vector"/>
  </g>
 </g>
</svg>