<svg width="28" height="28" viewBox="0 0 28 28" fill="none" xmlns="http://www.w3.org/2000/svg">
<g id="&#240;&#159;&#166;&#134; icon &#34;add circle outline&#34;">
<path id="Vector" d="M14 8.16666C13.3583 8.16666 12.8333 8.69166 12.8333 9.33333V12.8333H9.33334C8.69168 12.8333 8.16668 13.3583 8.16668 14C8.16668 14.6417 8.69168 15.1667 9.33334 15.1667H12.8333V18.6667C12.8333 19.3083 13.3583 19.8333 14 19.8333C14.6417 19.8333 15.1667 19.3083 15.1667 18.6667V15.1667H18.6667C19.3083 15.1667 19.8333 14.6417 19.8333 14C19.8333 13.3583 19.3083 12.8333 18.6667 12.8333H15.1667V9.33333C15.1667 8.69166 14.6417 8.16666 14 8.16666ZM14 2.33333C7.56001 2.33333 2.33334 7.56 2.33334 14C2.33334 20.44 7.56001 25.6667 14 25.6667C20.44 25.6667 25.6667 20.44 25.6667 14C25.6667 7.56 20.44 2.33333 14 2.33333ZM14 23.3333C8.85501 23.3333 4.66668 19.145 4.66668 14C4.66668 8.855 8.85501 4.66666 14 4.66666C19.145 4.66666 23.3333 8.855 23.3333 14C23.3333 19.145 19.145 23.3333 14 23.3333Z" fill="#61646B"/>
</g>
</svg>
