<?xml version="1.0"?>
<svg width="28" height="28" xmlns="http://www.w3.org/2000/svg" xmlns:svg="http://www.w3.org/2000/svg">
 <g class="layer">
  <title>Layer 1</title>
  <g id="🦆 icon &quot;insert chart outlined&quot;">
   <path d="m7.83,20.33c-0.64,0 -1.16,-0.52 -1.16,-1.16l0,-5.84c0,-0.64 0.52,-1.16 1.16,-1.16c0.65,0 1.17,0.52 1.17,1.16l0,5.84c0,0.64 -0.52,1.16 -1.17,1.16zm4.67,0c-0.64,0 -1.17,-0.52 -1.17,-1.16l0,-9.34c0,-0.64 0.53,-1.16 1.17,-1.16c0.64,0 1.17,0.52 1.17,1.16l0,9.34c0,0.64 -0.53,1.16 -1.17,1.16zm4.67,0c-0.65,0 -1.17,-0.52 -1.17,-1.16l0,-2.34c0,-0.64 0.52,-1.16 1.17,-1.16c0.64,0 1.16,0.52 1.16,1.16l0,2.34c0,0.64 -0.52,1.16 -1.16,1.16zm2.33,2.34l-14,0c-0.64,0 -1.17,-0.53 -1.17,-1.17l0,-14c0,-0.64 0.53,-1.17 1.17,-1.17l14,0c0.64,0 1.17,0.53 1.17,1.17l0,14c0,0.64 -0.53,1.17 -1.17,1.17zm1.17,-18.67l-16.34,0c-1.28,0 -2.33,1.05 -2.33,2.33l0,16.34c0,1.28 1.05,2.33 2.33,2.33l16.34,0c1.28,0 2.33,-1.05 2.33,-2.33l0,-16.34c0,-1.28 -1.05,-2.33 -2.33,-2.33z" fill="#61646B" id="Vector"/>
  </g>
 </g>
</svg>